<?xml version="1.0" encoding="utf-8"?>
<!-- Generator: Adobe Illustrator 16.0.0, SVG Export Plug-In . SVG Version: 6.00 Build 0)  -->
<!DOCTYPE svg PUBLIC "-//W3C//DTD SVG 1.1//EN" "http://www.w3.org/Graphics/SVG/1.1/DTD/svg11.dtd">
<svg version="1.1" id="Ebene_1" xmlns="http://www.w3.org/2000/svg" xmlns:xlink="http://www.w3.org/1999/xlink" x="0px" y="0px"
	 width="595.28px" height="208px" viewBox="0 0 595.28 208" enable-background="new 0 0 595.28 208" xml:space="preserve">
<g>
	<path d="M218.93,13.283h22.813v8.531h-14.125v8.344h14.125v8.406h-14.125v20.688h-8.688V13.283z"/>
	<path d="M291.961,20.783l-6.162,6.094c-3.899-4.125-8.445-6.188-13.637-6.188c-4.525,0-8.315,1.5-11.37,4.5
		s-4.582,6.646-4.582,10.938c0,4.438,1.585,8.198,4.755,11.281c3.17,3.083,7.081,4.625,11.731,4.625
		c3.024,0,5.574-0.635,7.649-1.906c2.075-1.271,3.749-3.26,5.021-5.969h-13.313v-8.219h23.125l0.063,1.938
		c0,4.021-1.042,7.833-3.125,11.438c-2.083,3.604-4.781,6.354-8.094,8.25s-7.198,2.844-11.656,2.844
		c-4.771,0-9.026-1.037-12.766-3.109c-3.74-2.073-6.698-5.026-8.875-8.859c-2.177-3.833-3.266-7.969-3.266-12.406
		c0-6.083,2.01-11.375,6.031-15.875c4.771-5.354,10.979-8.031,18.625-8.031c4,0,7.739,0.74,11.219,2.219
		C286.273,15.596,289.148,17.742,291.961,20.783z"/>
	<path d="M323.148,30.002l-5.281,5.281c-2.146-2.125-4.094-3.188-5.844-3.188c-0.959,0-1.709,0.203-2.25,0.609
		c-0.542,0.406-0.813,0.912-0.813,1.516c0,0.458,0.172,0.88,0.516,1.266c0.344,0.386,1.192,0.912,2.547,1.578l3.125,1.563
		c3.291,1.625,5.552,3.281,6.781,4.969c1.229,1.688,1.844,3.667,1.844,5.938c0,3.021-1.109,5.542-3.328,7.563
		c-2.219,2.021-5.193,3.031-8.922,3.031c-4.959,0-8.917-1.938-11.875-5.813l5.25-5.719c1,1.167,2.172,2.109,3.516,2.828
		s2.536,1.078,3.578,1.078c1.125,0,2.031-0.271,2.719-0.813c0.688-0.542,1.031-1.167,1.031-1.875c0-1.313-1.24-2.594-3.719-3.844
		l-2.875-1.438c-5.5-2.771-8.25-6.239-8.25-10.406c0-2.688,1.036-4.984,3.109-6.891c2.072-1.906,4.724-2.859,7.953-2.859
		c2.208,0,4.286,0.484,6.234,1.453C320.143,26.799,321.794,28.189,323.148,30.002z"/>
	<path d="M338.961,25.252v3.75c1.541-1.542,3.208-2.698,5-3.469c1.791-0.771,3.708-1.156,5.75-1.156
		c4.438,0,8.208,1.677,11.313,5.031c3.104,3.354,4.656,7.656,4.656,12.906c0,5.063-1.604,9.297-4.813,12.703
		c-3.209,3.406-7.011,5.109-11.406,5.109c-1.959,0-3.781-0.349-5.469-1.047s-3.365-1.838-5.031-3.422v16.031h-8.469V25.252H338.961z
		 M347.93,32.252c-2.688,0-4.917,0.917-6.688,2.75c-1.771,1.833-2.656,4.229-2.656,7.188c0,3.021,0.885,5.464,2.656,7.328
		c1.771,1.865,4,2.797,6.688,2.797c2.604,0,4.797-0.948,6.578-2.844c1.781-1.896,2.672-4.313,2.672-7.25
		c0-2.917-0.875-5.307-2.625-7.172C352.805,33.185,350.596,32.252,347.93,32.252z"/>
	<path d="M388.711,24.377c3.208,0,6.224,0.802,9.047,2.406c2.822,1.604,5.025,3.781,6.609,6.531c1.583,2.75,2.375,5.719,2.375,8.906
		c0,3.208-0.797,6.208-2.391,9c-1.594,2.792-3.766,4.974-6.516,6.547s-5.781,2.359-9.094,2.359c-4.875,0-9.037-1.734-12.484-5.203
		c-3.448-3.469-5.172-7.682-5.172-12.641c0-5.313,1.947-9.739,5.844-13.281C380.346,25.919,384.273,24.377,388.711,24.377z
		 M388.852,32.408c-2.65,0-4.857,0.922-6.621,2.766s-2.645,4.203-2.645,7.078c0,2.958,0.871,5.354,2.613,7.188
		c1.742,1.833,3.949,2.75,6.621,2.75c2.671,0,4.894-0.927,6.668-2.781c1.773-1.854,2.66-4.239,2.66-7.156
		c0-2.917-0.871-5.286-2.613-7.109C393.792,33.32,391.564,32.408,388.852,32.408z"/>
	<path d="M411.711,25.252h7.313v4.281c0.791-1.688,1.844-2.969,3.156-3.844s2.75-1.313,4.313-1.313c1.104,0,2.26,0.292,3.469,0.875
		l-2.656,7.344c-1-0.5-1.823-0.75-2.469-0.75c-1.313,0-2.422,0.813-3.328,2.438s-1.359,4.813-1.359,9.563l0.031,1.656v13.75h-8.469
		V25.252z"/>
	<path d="M435.211,12.721h8.531v12.531h5.063v7.344h-5.063v26.656h-8.531V32.596h-4.375v-7.344h4.375V12.721z"/>
	<path d="M449.305,25.252h3.031c0.021-4.458,0.094-7.094,0.219-7.906c0.229-1.875,1.016-3.359,2.359-4.453s3.244-1.641,5.703-1.641
		c1.771,0,3.771,0.406,6,1.219v6.5c-1.229-0.354-2.24-0.531-3.031-0.531c-1,0-1.729,0.208-2.188,0.625
		c-0.334,0.313-0.5,0.958-0.5,1.938l-0.031,4.25h5.406v7.219h-5.406v26.781h-8.531V32.471h-3.031V25.252z"/>
	<path d="M487.242,24.377c3.208,0,6.224,0.802,9.047,2.406c2.822,1.604,5.025,3.781,6.609,6.531c1.583,2.75,2.375,5.719,2.375,8.906
		c0,3.208-0.797,6.208-2.391,9c-1.594,2.792-3.766,4.974-6.516,6.547s-5.781,2.359-9.094,2.359c-4.875,0-9.037-1.734-12.484-5.203
		c-3.448-3.469-5.172-7.682-5.172-12.641c0-5.313,1.947-9.739,5.844-13.281C478.877,25.919,482.805,24.377,487.242,24.377z
		 M487.383,32.408c-2.65,0-4.857,0.922-6.621,2.766s-2.645,4.203-2.645,7.078c0,2.958,0.871,5.354,2.613,7.188
		c1.742,1.833,3.949,2.75,6.621,2.75c2.671,0,4.894-0.927,6.668-2.781c1.773-1.854,2.66-4.239,2.66-7.156
		c0-2.917-0.871-5.286-2.613-7.109C492.323,33.32,490.096,32.408,487.383,32.408z"/>
	<path d="M513.273,12.721h8.531v12.531h5.063v7.344h-5.063v26.656h-8.531V32.596h-4.375v-7.344h4.375V12.721z"/>
	<path d="M547.398,24.377c3.208,0,6.224,0.802,9.047,2.406c2.822,1.604,5.025,3.781,6.609,6.531c1.583,2.75,2.375,5.719,2.375,8.906
		c0,3.208-0.797,6.208-2.391,9c-1.594,2.792-3.766,4.974-6.516,6.547s-5.781,2.359-9.094,2.359c-4.875,0-9.037-1.734-12.484-5.203
		c-3.448-3.469-5.172-7.682-5.172-12.641c0-5.313,1.947-9.739,5.844-13.281C539.033,25.919,542.961,24.377,547.398,24.377z
		 M547.539,32.408c-2.65,0-4.857,0.922-6.621,2.766s-2.645,4.203-2.645,7.078c0,2.958,0.871,5.354,2.613,7.188
		c1.742,1.833,3.949,2.75,6.621,2.75c2.671,0,4.894-0.927,6.668-2.781c1.773-1.854,2.66-4.239,2.66-7.156
		c0-2.917-0.871-5.286-2.613-7.109C552.479,33.32,550.252,32.408,547.539,32.408z"/>
</g>
<g>
	<path fill="#12100B" d="M237.7,102.482c-5.471,0-6.157,0.023-8.306,0.121c-2.144,0.098-3.608,0.438-4.89,0.937
		c-1.325,0.515-2.448,1.203-3.568,2.323c-1.12,1.12-1.809,2.244-2.324,3.568c-0.498,1.281-0.838,2.746-0.937,4.891
		c-0.098,2.148-0.121,2.834-0.121,8.306c0,5.471,0.023,6.157,0.121,8.306c0.098,2.145,0.438,3.609,0.937,4.891
		c0.515,1.324,1.204,2.448,2.324,3.568c1.12,1.119,2.243,1.809,3.568,2.323c1.282,0.498,2.746,0.839,4.89,0.937
		c2.149,0.098,2.835,0.121,8.306,0.121s6.157-0.023,8.306-0.121c2.144-0.098,3.609-0.438,4.89-0.937
		c1.325-0.515,2.448-1.204,3.568-2.323c1.12-1.12,1.809-2.244,2.323-3.568c0.498-1.281,0.839-2.746,0.937-4.891
		c0.098-2.148,0.121-2.835,0.121-8.306c0-5.472-0.023-6.157-0.121-8.306c-0.098-2.145-0.438-3.609-0.937-4.891
		c-0.515-1.324-1.204-2.448-2.323-3.568c-1.12-1.12-2.244-1.809-3.568-2.323c-1.281-0.498-2.746-0.839-4.89-0.937
		C243.857,102.505,243.171,102.482,237.7,102.482L237.7,102.482L237.7,102.482z M237.7,106.112c5.379,0,6.017,0.021,8.141,0.117
		c1.964,0.09,3.031,0.418,3.741,0.693c0.94,0.366,1.611,0.803,2.316,1.507c0.705,0.705,1.142,1.377,1.507,2.316
		c0.276,0.71,0.604,1.777,0.694,3.741c0.097,2.124,0.117,2.762,0.117,8.141s-0.021,6.017-0.117,8.141
		c-0.09,1.964-0.418,3.03-0.694,3.74c-0.365,0.94-0.802,1.611-1.507,2.316s-1.376,1.142-2.316,1.507
		c-0.71,0.276-1.776,0.604-3.741,0.694c-2.124,0.097-2.761,0.117-8.141,0.117s-6.017-0.021-8.141-0.117
		c-1.964-0.09-3.031-0.418-3.741-0.694c-0.94-0.365-1.611-0.802-2.316-1.507c-0.705-0.705-1.142-1.376-1.507-2.316
		c-0.276-0.71-0.604-1.776-0.694-3.74c-0.097-2.124-0.117-2.762-0.117-8.141s0.021-6.017,0.117-8.141
		c0.09-1.964,0.418-3.031,0.694-3.741c0.365-0.939,0.802-1.611,1.507-2.315c0.705-0.705,1.376-1.142,2.316-1.508
		c0.71-0.275,1.777-0.604,3.741-0.693C231.684,106.133,232.321,106.112,237.7,106.112"/>
	<path fill="#12100B" d="M237.7,129.343c-3.708,0-6.715-3.006-6.715-6.715s3.007-6.715,6.715-6.715c3.709,0,6.715,3.006,6.715,6.715
		S241.409,129.343,237.7,129.343L237.7,129.343z M237.7,112.283c-5.713,0-10.345,4.631-10.345,10.345
		c0,5.713,4.631,10.345,10.345,10.345s10.345-4.632,10.345-10.345C248.045,116.914,243.414,112.283,237.7,112.283L237.7,112.283z"/>
	<path fill="#12100B" d="M250.872,111.874c0,1.335-1.083,2.418-2.417,2.418s-2.417-1.083-2.417-2.418s1.083-2.417,2.417-2.417
		S250.872,110.539,250.872,111.874L250.872,111.874z"/>
</g>
<path fill="#010202" d="M330.133,102.482h-34.82c-1.195,0-2.162,1.006-2.162,2.248v36.204c0,1.24,0.967,2.245,2.162,2.245h18.748
	v-15.761h-5.103v-6.142h5.103v-4.528c0-5.257,3.087-8.119,7.598-8.119c2.162,0,4.017,0.168,4.559,0.242v5.493l-3.129,0.002
	c-2.452,0-2.927,1.213-2.927,2.99v3.922h5.852l-0.761,6.143h-5.091v15.758h9.978c1.189,0,2.156-1.005,2.156-2.248V104.73
	C332.295,103.488,331.328,102.482,330.133,102.482z"/>
<g>
	<path d="M376.061,108.854v2.542c-0.953-0.408-1.77-0.612-2.449-0.612c-0.508,0-0.928,0.103-1.262,0.306
		c-0.334,0.205-0.545,0.439-0.631,0.705c-0.087,0.267-0.13,0.975-0.13,2.125l-0.003,2.728h4.215v2.245h-4.216l-0.015,17.942h-2.598
		v-17.942h-2.653v-2.245h2.653v-3.154c0-1.447,0.133-2.479,0.398-3.099c0.266-0.618,0.718-1.116,1.355-1.494
		c0.637-0.377,1.406-0.565,2.31-0.565C373.877,108.335,374.885,108.508,376.061,108.854z"/>
	<path d="M397.083,116.647h2.598v16.087c0,2.833-0.247,4.904-0.742,6.216c-0.681,1.855-1.862,3.284-3.544,4.286
		c-1.683,1.002-3.705,1.503-6.067,1.503c-1.731,0-3.288-0.245-4.667-0.735s-2.502-1.147-3.367-1.973
		c-0.866-0.825-1.664-2.031-2.394-3.619h2.82c0.768,1.336,1.759,2.325,2.972,2.969c1.215,0.643,2.719,0.965,4.515,0.965
		c1.771,0,3.267-0.33,4.487-0.989c1.219-0.66,2.09-1.489,2.609-2.487c0.52-0.999,0.78-2.61,0.78-4.836v-1.039
		c-0.978,1.237-2.173,2.187-3.585,2.849c-1.412,0.661-2.91,0.992-4.494,0.992c-1.857,0-3.604-0.461-5.238-1.383
		c-1.635-0.921-2.897-2.161-3.789-3.72c-0.891-1.559-1.337-3.271-1.337-5.14c0-1.867,0.464-3.609,1.394-5.223
		c0.928-1.615,2.213-2.892,3.854-3.832s3.371-1.41,5.191-1.41c1.51,0,2.919,0.313,4.225,0.938c1.307,0.624,2.566,1.654,3.78,3.089
		V116.647z M389.42,118.633c-1.473,0-2.839,0.355-4.101,1.067c-1.262,0.711-2.251,1.694-2.969,2.949
		c-0.718,1.256-1.076,2.614-1.076,4.073c0,2.215,0.742,4.045,2.227,5.492s3.407,2.171,5.771,2.171c2.387,0,4.308-0.717,5.762-2.152
		c1.453-1.435,2.18-3.321,2.18-5.659c0-1.521-0.334-2.879-1.002-4.073c-0.668-1.193-1.614-2.136-2.839-2.829
		C392.147,118.979,390.83,118.633,389.42,118.633z"/>
	<path d="M415.396,118.855l-1.67,1.726c-1.391-1.348-2.748-2.022-4.074-2.022c-0.844,0-1.566,0.278-2.168,0.835
		s-0.902,1.206-0.902,1.948c0,0.656,0.248,1.28,0.744,1.874c0.496,0.606,1.537,1.317,3.123,2.134
		c1.934,1.002,3.248,1.967,3.943,2.895c0.682,0.94,1.021,1.998,1.021,3.173c0,1.658-0.582,3.062-1.746,4.212
		c-1.166,1.15-2.621,1.726-4.367,1.726c-1.164,0-2.277-0.254-3.336-0.761s-1.936-1.206-2.629-2.097l1.633-1.855
		c1.326,1.497,2.734,2.245,4.221,2.245c1.041,0,1.928-0.334,2.66-1.002c0.73-0.668,1.098-1.453,1.098-2.356
		c0-0.742-0.242-1.403-0.725-1.985c-0.484-0.568-1.576-1.286-3.273-2.152c-1.822-0.939-3.063-1.867-3.719-2.783
		c-0.658-0.915-0.986-1.96-0.986-3.136c0-1.533,0.523-2.808,1.57-3.822s2.371-1.521,3.969-1.521
		C411.641,116.128,413.512,117.037,415.396,118.855z"/>
	<path d="M420.035,116.647h2.598v3.711c1.025-1.41,2.207-2.468,3.541-3.173s2.824-1.058,4.467-1.058c2.867,0,5.32,1.033,7.359,3.099
		c2.039,2.066,3.059,4.553,3.059,7.459c0,2.969-1.012,5.489-3.031,7.562c-2.02,2.071-4.457,3.107-7.313,3.107
		c-1.607,0-3.084-0.334-4.43-1.002c-1.348-0.668-2.564-1.663-3.652-2.987v10.854h-2.598V116.647z M430.426,118.633
		c-2.246,0-4.137,0.785-5.674,2.354c-1.537,1.569-2.305,3.521-2.305,5.856c0,1.532,0.344,2.91,1.027,4.134
		c0.686,1.223,1.666,2.192,2.943,2.909s2.625,1.075,4.045,1.075c1.395,0,2.705-0.361,3.934-1.084s2.207-1.733,2.936-3.03
		c0.727-1.297,1.092-2.656,1.092-4.078c0-1.433-0.361-2.792-1.084-4.076c-0.721-1.285-1.693-2.283-2.916-2.994
		C433.203,118.988,431.869,118.633,430.426,118.633z"/>
	<path d="M455.475,116.128c3.111,0,5.688,1.126,7.732,3.377c1.859,2.054,2.789,4.484,2.789,7.292c0,2.82-0.982,5.285-2.947,7.394
		c-1.963,2.109-4.488,3.164-7.574,3.164c-3.098,0-5.629-1.055-7.592-3.164c-1.965-2.108-2.947-4.573-2.947-7.394
		c0-2.795,0.93-5.22,2.789-7.273C449.77,117.26,452.352,116.128,455.475,116.128z M455.467,118.67c-2.16,0-4.018,0.798-5.568,2.394
		c-1.553,1.596-2.328,3.525-2.328,5.789c0,1.46,0.354,2.82,1.063,4.082c0.707,1.262,1.662,2.236,2.867,2.922
		c1.203,0.688,2.525,1.03,3.967,1.03c1.439,0,2.762-0.343,3.965-1.03c1.205-0.686,2.16-1.66,2.867-2.922
		c0.709-1.262,1.063-2.622,1.063-4.082c0-2.264-0.779-4.193-2.338-5.789S457.613,118.67,455.467,118.67z"/>
	<path d="M469.818,116.647h2.652v2.95c0.791-1.162,1.627-2.032,2.506-2.606c0.877-0.575,1.793-0.863,2.746-0.863
		c0.717,0,1.484,0.229,2.301,0.687l-1.355,2.189c-0.545-0.234-1.002-0.353-1.373-0.353c-0.865,0-1.701,0.355-2.504,1.066
		c-0.805,0.712-1.418,1.816-1.838,3.313c-0.322,1.15-0.482,3.477-0.482,6.977v6.828h-2.652V116.647z"/>
	<path d="M484.494,109.151h2.598v7.496h4.119v2.245h-4.119v17.942h-2.598v-17.942h-3.543v-2.245h3.543V109.151z"/>
	<path d="M503.42,108.854v2.542c-0.953-0.408-1.77-0.612-2.449-0.612c-0.508,0-0.928,0.103-1.262,0.306
		c-0.334,0.205-0.545,0.439-0.631,0.705c-0.086,0.267-0.129,0.975-0.129,2.125l-0.002,2.728h4.213v2.245h-4.215l-0.016,17.942
		h-2.598v-17.942h-2.652v-2.245h2.652v-3.154c0-1.447,0.133-2.479,0.398-3.099c0.268-0.618,0.719-1.116,1.355-1.494
		c0.637-0.377,1.406-0.565,2.311-0.565C501.236,108.335,502.244,108.508,503.42,108.854z"/>
	<path d="M516.594,116.128c3.111,0,5.688,1.126,7.732,3.377c1.859,2.054,2.789,4.484,2.789,7.292c0,2.82-0.982,5.285-2.947,7.394
		c-1.963,2.109-4.488,3.164-7.574,3.164c-3.098,0-5.629-1.055-7.592-3.164c-1.965-2.108-2.947-4.573-2.947-7.394
		c0-2.795,0.93-5.22,2.789-7.273C510.889,117.26,513.471,116.128,516.594,116.128z M516.586,118.67c-2.16,0-4.018,0.798-5.568,2.394
		c-1.553,1.596-2.328,3.525-2.328,5.789c0,1.46,0.354,2.82,1.063,4.082c0.707,1.262,1.662,2.236,2.867,2.922
		c1.203,0.688,2.525,1.03,3.967,1.03c1.439,0,2.762-0.343,3.965-1.03c1.205-0.686,2.16-1.66,2.867-2.922
		c0.709-1.262,1.063-2.622,1.063-4.082c0-2.264-0.779-4.193-2.338-5.789S518.732,118.67,516.586,118.67z"/>
	<path d="M534.184,109.151h2.598v7.496h4.119v2.245h-4.119v17.942h-2.598v-17.942h-3.543v-2.245h3.543V109.151z"/>
	<path d="M554.354,116.128c3.109,0,5.688,1.126,7.732,3.377c1.857,2.054,2.787,4.484,2.787,7.292c0,2.82-0.982,5.285-2.945,7.394
		c-1.965,2.109-4.49,3.164-7.574,3.164c-3.098,0-5.629-1.055-7.594-3.164c-1.963-2.108-2.945-4.573-2.945-7.394
		c0-2.795,0.928-5.22,2.787-7.273C548.646,117.26,551.23,116.128,554.354,116.128z M554.344,118.67c-2.16,0-4.016,0.798-5.568,2.394
		c-1.551,1.596-2.326,3.525-2.326,5.789c0,1.46,0.354,2.82,1.061,4.082s1.664,2.236,2.867,2.922c1.205,0.688,2.527,1.03,3.967,1.03
		s2.762-0.343,3.967-1.03c1.203-0.686,2.158-1.66,2.867-2.922c0.707-1.262,1.061-2.622,1.061-4.082c0-2.264-0.779-4.193-2.336-5.789
		C558.344,119.468,556.49,118.67,554.344,118.67z"/>
</g>
<g>
	<path d="M226.697,173.292v2.073c-0.777-0.332-1.443-0.499-1.998-0.499c-0.414,0-0.757,0.083-1.029,0.25
		c-0.272,0.166-0.444,0.358-0.515,0.575c-0.071,0.217-0.106,0.794-0.106,1.733l-0.002,2.225h3.438v1.832h-3.439l-0.012,14.637
		h-2.119v-14.637h-2.165v-1.832h2.165v-2.573c0-1.181,0.108-2.023,0.325-2.527c0.217-0.505,0.585-0.911,1.105-1.219
		c0.52-0.309,1.147-0.462,1.884-0.462C224.916,172.868,225.738,173.01,226.697,173.292z"/>
	<path d="M237.444,179.226c2.537,0,4.64,0.918,6.308,2.755c1.516,1.675,2.274,3.658,2.274,5.948c0,2.301-0.801,4.313-2.403,6.032
		c-1.603,1.721-3.662,2.581-6.179,2.581c-2.527,0-4.592-0.86-6.194-2.581c-1.602-1.72-2.403-3.731-2.403-6.032
		c0-2.28,0.758-4.258,2.274-5.934C232.789,180.149,234.897,179.226,237.444,179.226z M237.437,181.3
		c-1.762,0-3.276,0.65-4.542,1.952c-1.266,1.302-1.899,2.876-1.899,4.723c0,1.19,0.289,2.301,0.866,3.33s1.357,1.824,2.339,2.384
		c0.982,0.561,2.061,0.84,3.236,0.84c1.174,0,2.253-0.279,3.235-0.84c0.982-0.56,1.762-1.354,2.339-2.384
		c0.577-1.029,0.866-2.14,0.866-3.33c0-1.847-0.636-3.421-1.907-4.723S239.188,181.3,237.437,181.3z"/>
	<path d="M251.794,173.534h2.119v6.115h3.361v1.832h-3.361v14.637h-2.119v-14.637h-2.891v-1.832h2.891V173.534z"/>
	<path d="M268.247,179.226c2.538,0,4.641,0.918,6.309,2.755c1.517,1.675,2.274,3.658,2.274,5.948c0,2.301-0.802,4.313-2.403,6.032
		c-1.603,1.721-3.662,2.581-6.18,2.581c-2.527,0-4.592-0.86-6.193-2.581c-1.603-1.72-2.404-3.731-2.404-6.032
		c0-2.28,0.759-4.258,2.275-5.934C263.592,180.149,265.7,179.226,268.247,179.226z M268.24,181.3c-1.763,0-3.276,0.65-4.542,1.952
		s-1.898,2.876-1.898,4.723c0,1.19,0.288,2.301,0.865,3.33s1.357,1.824,2.34,2.384c0.981,0.561,2.061,0.84,3.235,0.84
		c1.174,0,2.253-0.279,3.235-0.84c0.982-0.56,1.762-1.354,2.339-2.384s0.866-2.14,0.866-3.33c0-1.847-0.636-3.421-1.906-4.723
		C271.502,181.95,269.992,181.3,268.24,181.3z"/>
	<path d="M283.082,192.788c0.515,0,0.954,0.182,1.317,0.545s0.545,0.808,0.545,1.332c0,0.515-0.182,0.956-0.545,1.324
		s-0.803,0.553-1.317,0.553s-0.954-0.185-1.317-0.553s-0.545-0.81-0.545-1.324c0-0.524,0.182-0.969,0.545-1.332
		S282.567,192.788,283.082,192.788z"/>
	<path d="M296.114,173.292v2.073c-0.777-0.332-1.443-0.499-1.998-0.499c-0.414,0-0.757,0.083-1.029,0.25
		c-0.272,0.166-0.444,0.358-0.515,0.575s-0.106,0.794-0.106,1.733l-0.001,2.225h3.438v1.832h-3.439l-0.012,14.637h-2.119v-14.637
		h-2.165v-1.832h2.165v-2.573c0-1.181,0.108-2.023,0.325-2.527c0.217-0.505,0.585-0.911,1.105-1.219
		c0.52-0.309,1.147-0.462,1.885-0.462C294.333,172.868,295.155,173.01,296.114,173.292z"/>
	<path d="M298.747,173.292h2.119v22.826h-2.119V173.292z"/>
	<path d="M313.066,179.226c2.537,0,4.641,0.918,6.309,2.755c1.516,1.675,2.273,3.658,2.273,5.948c0,2.301-0.801,4.313-2.402,6.032
		c-1.604,1.721-3.662,2.581-6.18,2.581c-2.527,0-4.592-0.86-6.193-2.581c-1.604-1.72-2.404-3.731-2.404-6.032
		c0-2.28,0.758-4.258,2.275-5.934C308.412,180.149,310.52,179.226,313.066,179.226z M313.059,181.3c-1.762,0-3.275,0.65-4.541,1.952
		s-1.898,2.876-1.898,4.723c0,1.19,0.287,2.301,0.865,3.33c0.576,1.029,1.357,1.824,2.34,2.384c0.98,0.561,2.061,0.84,3.234,0.84
		s2.254-0.279,3.236-0.84c0.982-0.56,1.762-1.354,2.338-2.384c0.578-1.029,0.867-2.14,0.867-3.33c0-1.847-0.637-3.421-1.906-4.723
		C316.322,181.95,314.811,181.3,313.059,181.3z"/>
	<path d="M324.766,179.649h2.166v2.406c0.645-0.948,1.326-1.657,2.043-2.126c0.717-0.47,1.463-0.704,2.24-0.704
		c0.586,0,1.211,0.187,1.877,0.561l-1.105,1.785c-0.443-0.191-0.816-0.287-1.119-0.287c-0.707,0-1.389,0.29-2.045,0.87
		c-0.654,0.581-1.154,1.481-1.498,2.702c-0.262,0.938-0.393,2.836-0.393,5.691v5.57h-2.166V179.649z"/>
	<path d="M335.627,172.868c0.482,0,0.895,0.172,1.236,0.515c0.342,0.344,0.512,0.757,0.512,1.241c0,0.475-0.17,0.884-0.512,1.226
		c-0.342,0.344-0.754,0.515-1.236,0.515c-0.473,0-0.879-0.171-1.221-0.515c-0.342-0.342-0.512-0.751-0.512-1.226
		c0-0.484,0.17-0.897,0.512-1.241C334.748,173.04,335.154,172.868,335.627,172.868z M334.574,179.649h2.119v16.469h-2.119V179.649z"
		/>
	<path d="M357.508,179.649v16.469h-2.09v-2.83c-0.887,1.079-1.885,1.892-2.988,2.437c-1.105,0.545-2.314,0.817-3.625,0.817
		c-2.332,0-4.322-0.845-5.973-2.535s-2.475-3.746-2.475-6.168c0-2.372,0.832-4.4,2.498-6.086c1.664-1.685,3.668-2.527,6.01-2.527
		c1.352,0,2.574,0.287,3.67,0.863c1.094,0.574,2.057,1.438,2.883,2.588v-3.027H357.508z M349.039,181.269
		c-1.18,0-2.27,0.29-3.266,0.87c-0.998,0.579-1.793,1.394-2.383,2.441c-0.59,1.049-0.883,2.157-0.883,3.326
		c0,1.159,0.297,2.269,0.891,3.326c0.596,1.059,1.395,1.883,2.396,2.473c1.004,0.59,2.078,0.884,3.229,0.884
		c1.158,0,2.258-0.292,3.295-0.877c1.039-0.584,1.838-1.375,2.396-2.373c0.561-0.998,0.84-2.122,0.84-3.372
		c0-1.904-0.627-3.497-1.883-4.777C352.418,181.909,350.873,181.269,349.039,181.269z"/>
	<path d="M362.275,179.649h2.119v2.951c0.848-1.13,1.787-1.975,2.816-2.535c1.029-0.56,2.148-0.84,3.359-0.84
		c1.232,0,2.324,0.313,3.277,0.938s1.658,1.468,2.111,2.528c0.455,1.059,0.682,2.709,0.682,4.949v8.477h-2.119v-7.855
		c0-1.897-0.078-3.164-0.236-3.8c-0.244-1.09-0.717-1.909-1.412-2.46c-0.697-0.55-1.605-0.824-2.725-0.824
		c-1.283,0-2.432,0.424-3.445,1.271s-1.682,1.896-2.006,3.148c-0.201,0.816-0.303,2.311-0.303,4.48v6.039h-2.119V179.649z"/>
	<path d="M395.381,179.649h2.119v13.123c0,2.312-0.203,4.002-0.605,5.071c-0.555,1.514-1.52,2.679-2.893,3.497
		c-1.371,0.816-3.021,1.226-4.949,1.226c-1.412,0-2.682-0.2-3.807-0.6s-2.041-0.937-2.748-1.609
		c-0.705-0.673-1.355-1.657-1.951-2.952h2.301c0.625,1.09,1.434,1.896,2.424,2.422c0.99,0.524,2.219,0.787,3.684,0.787
		c1.443,0,2.664-0.27,3.66-0.808c0.994-0.538,1.705-1.215,2.129-2.029s0.637-2.129,0.637-3.944v-0.848
		c-0.799,1.009-1.773,1.783-2.926,2.323c-1.15,0.54-2.373,0.81-3.666,0.81c-1.516,0-2.939-0.376-4.273-1.128
		c-1.332-0.751-2.363-1.763-3.09-3.034c-0.729-1.271-1.092-2.67-1.092-4.193s0.379-2.944,1.137-4.261
		c0.758-1.317,1.807-2.359,3.145-3.126s2.75-1.15,4.234-1.15c1.232,0,2.381,0.255,3.447,0.765s2.094,1.35,3.084,2.521V179.649z
		 M389.129,181.269c-1.201,0-2.316,0.291-3.346,0.871s-1.836,1.383-2.422,2.406c-0.584,1.024-0.877,2.132-0.877,3.322
		c0,1.807,0.605,3.301,1.816,4.48c1.211,1.182,2.779,1.771,4.707,1.771c1.947,0,3.514-0.585,4.699-1.756s1.779-2.709,1.779-4.617
		c0-1.24-0.273-2.348-0.818-3.322c-0.545-0.974-1.316-1.743-2.314-2.309C391.354,181.552,390.279,181.269,389.129,181.269z"/>
	<path d="M401.768,179.649h2.119v7.689c0,1.877,0.102,3.169,0.303,3.875c0.305,1.009,0.883,1.807,1.736,2.392
		s1.873,0.878,3.055,0.878s2.186-0.285,3.01-0.855c0.822-0.569,1.393-1.319,1.705-2.248c0.213-0.635,0.318-1.982,0.318-4.041v-7.689
		h2.164v8.083c0,2.271-0.264,3.981-0.795,5.132c-0.529,1.15-1.326,2.051-2.391,2.701c-1.064,0.651-2.398,0.977-4.004,0.977
		c-1.604,0-2.943-0.325-4.02-0.977c-1.074-0.65-1.877-1.559-2.406-2.725c-0.529-1.165-0.795-2.919-0.795-5.26V179.649z"/>
	<path d="M434.75,190.653l1.787,0.939c-0.586,1.15-1.264,2.078-2.031,2.785c-0.768,0.706-1.631,1.243-2.59,1.611
		c-0.961,0.368-2.047,0.553-3.258,0.553c-2.688,0-4.787-0.88-6.303-2.642c-1.516-1.761-2.273-3.751-2.273-5.972
		c0-2.088,0.643-3.95,1.926-5.585c1.625-2.079,3.803-3.118,6.529-3.118c2.807,0,5.049,1.064,6.727,3.193
		c1.191,1.504,1.797,3.381,1.818,5.631h-14.82c0.041,1.913,0.652,3.481,1.834,4.705c1.184,1.223,2.643,1.834,4.381,1.834
		c0.838,0,1.654-0.146,2.447-0.437c0.793-0.292,1.467-0.679,2.023-1.161C433.502,192.509,434.104,191.729,434.75,190.653z
		 M434.75,186.219c-0.283-1.13-0.693-2.033-1.234-2.71c-0.541-0.676-1.256-1.221-2.145-1.635c-0.889-0.413-1.824-0.62-2.805-0.62
		c-1.615,0-3.006,0.52-4.168,1.56c-0.848,0.756-1.49,1.892-1.924,3.405H434.75z"/>
	<path d="M441.016,179.649h2.119v2.846c0.738-1.05,1.496-1.816,2.273-2.301c1.072-0.646,2.197-0.969,3.381-0.969
		c0.797,0,1.555,0.156,2.271,0.469c0.719,0.313,1.305,0.729,1.758,1.249c0.455,0.521,0.85,1.265,1.184,2.233
		c0.703-1.292,1.584-2.273,2.643-2.944c1.057-0.671,2.193-1.007,3.412-1.007c1.137,0,2.143,0.287,3.014,0.863
		c0.869,0.574,1.516,1.377,1.939,2.406c0.422,1.029,0.635,2.573,0.635,4.632v8.991h-2.166v-8.991c0-1.766-0.125-2.979-0.377-3.641
		c-0.25-0.66-0.682-1.193-1.289-1.597c-0.609-0.403-1.336-0.605-2.18-0.605c-1.027,0-1.965,0.303-2.814,0.908
		s-1.471,1.413-1.863,2.422s-0.588,2.694-0.588,5.056v6.448h-2.119v-8.432c0-1.987-0.123-3.337-0.371-4.049
		c-0.248-0.711-0.678-1.281-1.295-1.71c-0.615-0.429-1.346-0.644-2.193-0.644c-0.979,0-1.895,0.295-2.748,0.886
		c-0.854,0.59-1.482,1.385-1.893,2.384c-0.408,0.999-0.613,2.527-0.613,4.586v6.979h-2.119V179.649z"/>
	<path d="M470.246,196.118v-22.826h2.119v9.188c0.887-1.09,1.881-1.904,2.979-2.444c1.1-0.539,2.305-0.81,3.615-0.81
		c2.328,0,4.316,0.846,5.965,2.535c1.648,1.69,2.473,3.741,2.473,6.153c0,2.382-0.832,4.415-2.496,6.101
		c-1.662,1.685-3.664,2.527-6.002,2.527c-1.342,0-2.557-0.287-3.645-0.863c-1.09-0.574-2.053-1.438-2.889-2.588v3.027H470.246z
		 M478.723,194.499c1.178,0,2.266-0.29,3.262-0.871c0.996-0.58,1.789-1.395,2.379-2.444c0.588-1.05,0.883-2.159,0.883-3.33
		s-0.297-2.286-0.891-3.345c-0.594-1.061-1.393-1.885-2.395-2.476c-1-0.59-2.07-0.886-3.209-0.886c-1.156,0-2.256,0.296-3.299,0.886
		c-1.043,0.591-1.842,1.386-2.4,2.384c-0.559,1-0.84,2.125-0.84,3.376c0,1.907,0.627,3.502,1.881,4.783
		S476.891,194.499,478.723,194.499z"/>
	<path d="M505.121,190.653l1.787,0.939c-0.586,1.15-1.264,2.078-2.031,2.785c-0.768,0.706-1.631,1.243-2.59,1.611
		c-0.961,0.368-2.047,0.553-3.258,0.553c-2.688,0-4.787-0.88-6.303-2.642c-1.516-1.761-2.273-3.751-2.273-5.972
		c0-2.088,0.643-3.95,1.926-5.585c1.625-2.079,3.803-3.118,6.529-3.118c2.807,0,5.049,1.064,6.727,3.193
		c1.191,1.504,1.797,3.381,1.818,5.631h-14.82c0.041,1.913,0.652,3.481,1.834,4.705c1.184,1.223,2.643,1.834,4.381,1.834
		c0.838,0,1.654-0.146,2.447-0.437c0.793-0.292,1.467-0.679,2.023-1.161C503.873,192.509,504.475,191.729,505.121,190.653z
		 M505.121,186.219c-0.283-1.13-0.693-2.033-1.234-2.71c-0.541-0.676-1.256-1.221-2.145-1.635c-0.889-0.413-1.824-0.62-2.805-0.62
		c-1.615,0-3.006,0.52-4.168,1.56c-0.848,0.756-1.49,1.892-1.924,3.405H505.121z"/>
	<path d="M511.084,173.292h2.119v22.826h-2.119V173.292z"/>
	<path d="M519.939,192.788c0.516,0,0.955,0.182,1.318,0.545s0.545,0.808,0.545,1.332c0,0.515-0.182,0.956-0.545,1.324
		s-0.803,0.553-1.318,0.553c-0.514,0-0.953-0.185-1.316-0.553s-0.545-0.81-0.545-1.324c0-0.524,0.182-0.969,0.545-1.332
		S519.426,192.788,519.939,192.788z"/>
	<path d="M542.631,173.292v22.826h-2.09v-2.83c-0.887,1.079-1.885,1.892-2.988,2.437c-1.105,0.545-2.314,0.817-3.627,0.817
		c-2.33,0-4.32-0.845-5.971-2.535s-2.475-3.746-2.475-6.168c0-2.372,0.832-4.4,2.498-6.086c1.664-1.685,3.668-2.527,6.008-2.527
		c1.354,0,2.576,0.287,3.672,0.863c1.094,0.574,2.057,1.438,2.883,2.588v-9.385H542.631z M534.162,181.269
		c-1.18,0-2.27,0.29-3.266,0.87c-0.998,0.579-1.793,1.394-2.383,2.441c-0.59,1.049-0.885,2.157-0.885,3.326
		c0,1.159,0.299,2.269,0.893,3.326c0.596,1.059,1.395,1.883,2.396,2.473c1.004,0.59,2.078,0.884,3.229,0.884
		c1.158,0,2.258-0.292,3.295-0.877c1.039-0.584,1.838-1.375,2.396-2.373c0.561-0.998,0.84-2.122,0.84-3.372
		c0-1.904-0.627-3.497-1.883-4.777C537.541,181.909,535.996,181.269,534.162,181.269z"/>
	<path d="M561.293,190.653l1.787,0.939c-0.586,1.15-1.264,2.078-2.031,2.785c-0.768,0.706-1.631,1.243-2.59,1.611
		c-0.961,0.368-2.047,0.553-3.258,0.553c-2.688,0-4.787-0.88-6.303-2.642c-1.516-1.761-2.273-3.751-2.273-5.972
		c0-2.088,0.643-3.95,1.926-5.585c1.625-2.079,3.803-3.118,6.529-3.118c2.807,0,5.049,1.064,6.727,3.193
		c1.191,1.504,1.797,3.381,1.818,5.631h-14.82c0.041,1.913,0.652,3.481,1.834,4.705c1.184,1.223,2.643,1.834,4.381,1.834
		c0.838,0,1.654-0.146,2.447-0.437c0.793-0.292,1.467-0.679,2.023-1.161C560.045,192.509,560.646,191.729,561.293,190.653z
		 M561.293,186.219c-0.283-1.13-0.693-2.033-1.234-2.71c-0.541-0.676-1.256-1.221-2.145-1.635c-0.889-0.413-1.824-0.62-2.805-0.62
		c-1.615,0-3.006,0.52-4.168,1.56c-0.848,0.756-1.49,1.892-1.924,3.405H561.293z"/>
</g>
<path fill="#010202" d="M51.027,175.274l31.625-54.771l42.839,74.087c-5.401,1.012-10.957,1.527-16.646,1.527
	C86.879,196.118,66.721,188.29,51.027,175.274z M194.361,135.631c-8.928,25.271-28.761,45.422-53.833,54.792l-31.632-54.792H194.361
	z M82.644,90.297l-42.736,74.021c-13.547-15.851-21.729-36.406-21.729-58.866c0-5.169,0.428-10.23,1.262-15.155H82.644z
	 M177.716,46.513c13.584,15.849,21.796,36.446,21.796,58.939c0,5.136-0.428,10.167-1.247,15.065h-63.263L177.716,46.513z
	 M92.302,16.298c5.357-0.993,10.891-1.513,16.543-1.513c21.929,0,42.057,7.807,57.744,20.785l-31.587,54.704L92.302,16.298z
	 M108.845,75.186H23.358C32.323,49.917,52.164,29.79,77.25,20.452L108.845,75.186z"/>
</svg>
